<svg xmlns="http://www.w3.org/2000/svg" width="32" height="32" viewBox="0 0 8.467 8.467" xmlns:v="https://vecta.io/nano"><circle cx="4.233" cy="4.233" r="4.233" fill-rule="evenodd"/><path d="M.001 4.328c0-.236.006-.49.05-.749s.11-.506.187-.745.177-.442.276-.62h.417c-.101.227-.188.464-.261.708s-.127.487-.165.728-.058.467-.058.68c0 .287.039.582.116.884s.2.648.369 1.041H.514c-.17-.311-.291-.627-.377-.953s-.136-.655-.136-.975zm1.751.726c-.118 0-.226-.031-.323-.093a.68.68 0 0 1-.229-.252c-.057-.106-.086-.222-.086-.35s.029-.246.086-.35a.68.68 0 0 1 .229-.252c.097-.062.205-.093.323-.093a.58.58 0 0 1 .321.093c.097.062.174.146.231.252s.086.221.086.35-.029.244-.086.35-.134.19-.231.252a.58.58 0 0 1-.321.093zm2.634-.332c0 .217.049.378.148.482a.51.51 0 0 0 .389.156c.161 0 .29-.052.387-.156s.146-.265.146-.482v-.369h.309v.415c0 .293-.076.513-.227.661s-.355.222-.614.222c-.327 0-.558-.108-.694-.324-.144.216-.371.324-.684.324-.26 0-.467-.072-.618-.215s-.225-.348-.225-.611v-.472h.307v.369c0 .217.049.378.148.482a.51.51 0 0 0 .389.156c.161 0 .29-.052.387-.156s.146-.265.146-.482v-.369h.309zm2.326.332c-.118 0-.226-.031-.323-.093a.68.68 0 0 1-.229-.252c-.057-.106-.086-.222-.086-.35s.029-.246.086-.35a.68.68 0 0 1 .229-.252c.097-.062.205-.093.323-.093a.58.58 0 0 1 .321.093c.097.062.174.146.231.252s.086.221.086.35-.029.244-.086.35-.134.19-.231.252a.58.58 0 0 1-.321.093zm.821 1.202l.279-.732c.072-.222.124-.429.157-.621s.05-.385.05-.571c0-.213-.02-.44-.06-.68a5.69 5.69 0 0 0-.167-.728 5.68 5.68 0 0 0-.259-.708h.42c.1.177.197.377.274.618s.143.482.187.742.052.424.052.66c0 .324-.05.75-.139 1.076a4.34 4.34 0 0 1-.375.946z" fill="#fff" paint-order="markers fill stroke"/></svg>